<svg xmlns="http://www.w3.org/2000/svg" width="16" height="16" viewBox="0 0 16 16">
    <g fill="none" fill-rule="evenodd">
        <g>
            <g>
                <g>
                    <g>
                        <g>
                            <path d="M0 0H16V16H0z" transform="translate(-213 -736) translate(16 553) translate(0 171) translate(116 11) translate(81 1)"/>
                            <g stroke="#FFF" stroke-linecap="round" stroke-width="1.2">
                                <path stroke-linejoin="round" d="M0 12L13.333 12" transform="translate(-213 -736) translate(16 553) translate(0 171) translate(116 11) translate(81 1) translate(1.333 2)"/>
                                <path stroke-linejoin="round" d="M2.667 8.667L6.667 4.667 10.667 8.667" transform="translate(-213 -736) translate(16 553) translate(0 171) translate(116 11) translate(81 1) translate(1.333 2) rotate(180 6.667 6.667)"/>
                                <path d="M6.667 8L6.667 0" transform="translate(-213 -736) translate(16 553) translate(0 171) translate(116 11) translate(81 1) translate(1.333 2)"/>
                            </g>
                        </g>
                    </g>
                </g>
            </g>
        </g>
    </g>
</svg>
