<svg width="980" height="408" viewBox="0 0 980 408" fill="none" xmlns="http://www.w3.org/2000/svg">
<rect width="980" height="408" fill="#E5E5E5"/>
<rect width="979.401" height="408" fill="white"/>
<rect x="310" y="107" width="546" height="197" fill="white"/>
<circle cx="196" cy="204" r="97.5" fill="black" stroke="black" stroke-width="5"/>
<path d="M427.541 250H410.141L405.341 235.24H376.661L371.981 250H354.581L381.941 171.76C383.141 169.04 384.461 167.16 385.901 166.12C387.421 165.08 389.261 164.56 391.421 164.56C393.581 164.56 395.301 165.04 396.581 166C397.941 166.96 399.141 168.88 400.181 171.76L427.541 250ZM401.501 221.2L391.421 187.36L380.861 221.2H401.501ZM519.835 250H494.395C484.795 250 477.835 248.16 473.515 244.48C469.275 240.72 467.155 234.64 467.155 226.24V164.56H483.835V226.24C483.835 229.6 484.595 231.92 486.115 233.2C487.635 234.48 490.395 235.12 494.395 235.12H519.835V250ZM613.703 250H588.263C578.663 250 571.703 248.16 567.383 244.48C563.143 240.72 561.023 234.64 561.023 226.24V164.56H577.703V226.24C577.703 229.6 578.463 231.92 579.983 233.2C581.503 234.48 584.263 235.12 588.263 235.12H613.703V250ZM711.17 250H680.93C671.33 250 664.57 248.36 660.65 245.08C656.81 241.72 654.89 235.84 654.89 227.44V164.56H711.17V179.44H671.57V199.48H699.29L698.09 214.36H671.57V226.24C671.57 229.6 672.33 231.92 673.85 233.2C675.37 234.48 678.13 235.12 682.13 235.12H711.17V250ZM806.437 250H762.997C758.597 250 755.237 248.96 752.917 246.88C750.597 244.8 749.437 242.08 749.437 238.72C749.437 235.36 750.677 231.84 753.157 228.16L786.757 179.44H751.837V164.56H806.437V177.76L767.437 235.12H806.437V250Z" fill="black"/>
<path d="M427.541 250V251H428.95L428.485 249.67L427.541 250ZM410.141 250L409.19 250.309L409.415 251H410.141V250ZM405.341 235.24L406.292 234.931L406.068 234.24H405.341V235.24ZM376.661 235.24V234.24H375.929L375.708 234.938L376.661 235.24ZM371.981 250V251H372.713L372.934 250.302L371.981 250ZM354.581 250L353.637 249.67L353.172 251H354.581V250ZM381.941 171.76L381.026 171.356L381.01 171.393L380.997 171.43L381.941 171.76ZM385.901 166.12L385.337 165.295L385.326 165.302L385.316 165.309L385.901 166.12ZM396.581 166L395.981 166.8L395.993 166.809L396.005 166.817L396.581 166ZM400.181 171.76L401.125 171.43L401.122 171.42L400.181 171.76ZM401.501 221.2V222.2H402.843L402.46 220.915L401.501 221.2ZM391.421 187.36L392.38 187.075L391.443 183.932L390.467 187.062L391.421 187.36ZM380.861 221.2L379.907 220.902L379.502 222.2H380.861V221.2ZM427.541 249H410.141V251H427.541V249ZM411.092 249.691L406.292 234.931L404.39 235.549L409.19 250.309L411.092 249.691ZM405.341 234.24H376.661V236.24H405.341V234.24ZM375.708 234.938L371.028 249.698L372.934 250.302L377.614 235.542L375.708 234.938ZM371.981 249H354.581V251H371.981V249ZM355.525 250.33L382.885 172.09L380.997 171.43L353.637 249.67L355.525 250.33ZM382.856 172.164C384.027 169.509 385.258 167.818 386.487 166.931L385.316 165.309C383.665 166.502 382.255 168.571 381.026 171.356L382.856 172.164ZM386.466 166.945C387.792 166.038 389.427 165.56 391.421 165.56V163.56C389.095 163.56 387.05 164.122 385.337 165.295L386.466 166.945ZM391.421 165.56C393.44 165.56 394.926 166.009 395.981 166.8L397.181 165.2C395.677 164.071 393.723 163.56 391.421 163.56V165.56ZM396.005 166.817C397.107 167.595 398.22 169.273 399.241 172.1L401.122 171.42C400.063 168.487 398.775 166.325 397.158 165.183L396.005 166.817ZM399.237 172.09L426.597 250.33L428.485 249.67L401.125 171.43L399.237 172.09ZM402.46 220.915L392.38 187.075L390.463 187.645L400.543 221.485L402.46 220.915ZM390.467 187.062L379.907 220.902L381.816 221.498L392.376 187.658L390.467 187.062ZM380.861 222.2H401.501V220.2H380.861V222.2ZM519.835 250V251H520.835V250H519.835ZM473.515 244.48L472.852 245.228L472.859 245.235L472.867 245.241L473.515 244.48ZM467.155 164.56V163.56H466.155V164.56H467.155ZM483.835 164.56H484.835V163.56H483.835V164.56ZM486.115 233.2L485.471 233.965L485.471 233.965L486.115 233.2ZM519.835 235.12H520.835V234.12H519.835V235.12ZM519.835 249H494.395V251H519.835V249ZM494.395 249C484.882 249 478.214 247.169 474.164 243.719L472.867 245.241C477.457 249.151 484.709 251 494.395 251V249ZM474.179 243.732C470.239 240.238 468.155 234.494 468.155 226.24H466.155C466.155 234.786 468.312 241.202 472.852 245.228L474.179 243.732ZM468.155 226.24V164.56H466.155V226.24H468.155ZM467.155 165.56H483.835V163.56H467.155V165.56ZM482.835 164.56V226.24H484.835V164.56H482.835ZM482.835 226.24C482.835 229.698 483.609 232.397 485.471 233.965L486.759 232.435C485.581 231.443 484.835 229.502 484.835 226.24H482.835ZM485.471 233.965C487.282 235.489 490.361 236.12 494.395 236.12V234.12C490.429 234.12 487.989 233.471 486.759 232.435L485.471 233.965ZM494.395 236.12H519.835V234.12H494.395V236.12ZM518.835 235.12V250H520.835V235.12H518.835ZM613.703 250V251H614.703V250H613.703ZM567.383 244.48L566.719 245.228L566.726 245.235L566.734 245.241L567.383 244.48ZM561.023 164.56V163.56H560.023V164.56H561.023ZM577.703 164.56H578.703V163.56H577.703V164.56ZM579.983 233.2L579.338 233.965L579.338 233.965L579.983 233.2ZM613.703 235.12H614.703V234.12H613.703V235.12ZM613.703 249H588.263V251H613.703V249ZM588.263 249C578.749 249 572.081 247.169 568.031 243.719L566.734 245.241C571.324 249.151 578.576 251 588.263 251V249ZM568.046 243.732C564.106 240.238 562.023 234.494 562.023 226.24H560.023C560.023 234.786 562.179 241.202 566.719 245.228L568.046 243.732ZM562.023 226.24V164.56H560.023V226.24H562.023ZM561.023 165.56H577.703V163.56H561.023V165.56ZM576.703 164.56V226.24H578.703V164.56H576.703ZM576.703 226.24C576.703 229.698 577.476 232.397 579.338 233.965L580.627 232.435C579.449 231.443 578.703 229.502 578.703 226.24H576.703ZM579.338 233.965C581.149 235.489 584.229 236.12 588.263 236.12V234.12C584.296 234.12 581.856 233.471 580.627 232.435L579.338 233.965ZM588.263 236.12H613.703V234.12H588.263V236.12ZM612.703 235.12V250H614.703V235.12H612.703ZM711.17 250V251H712.17V250H711.17ZM660.65 245.08L659.991 245.833L659.999 245.84L660.008 245.847L660.65 245.08ZM654.89 164.56V163.56H653.89V164.56H654.89ZM711.17 164.56H712.17V163.56H711.17V164.56ZM711.17 179.44V180.44H712.17V179.44H711.17ZM671.57 179.44V178.44H670.57V179.44H671.57ZM671.57 199.48H670.57V200.48H671.57V199.48ZM699.29 199.48L700.286 199.56L700.374 198.48H699.29V199.48ZM698.09 214.36V215.36H699.012L699.086 214.44L698.09 214.36ZM671.57 214.36V213.36H670.57V214.36H671.57ZM673.85 233.2L673.206 233.965L673.206 233.965L673.85 233.2ZM711.17 235.12H712.17V234.12H711.17V235.12ZM711.17 249H680.93V251H711.17V249ZM680.93 249C671.384 249 664.93 247.357 661.291 244.313L660.008 245.847C664.21 249.363 671.275 251 680.93 251V249ZM661.308 244.327C657.792 241.251 655.89 235.733 655.89 227.44H653.89C653.89 235.947 655.828 242.189 659.991 245.833L661.308 244.327ZM655.89 227.44V164.56H653.89V227.44H655.89ZM654.89 165.56H711.17V163.56H654.89V165.56ZM710.17 164.56V179.44H712.17V164.56H710.17ZM711.17 178.44H671.57V180.44H711.17V178.44ZM670.57 179.44V199.48H672.57V179.44H670.57ZM671.57 200.48H699.29V198.48H671.57V200.48ZM698.293 199.4L697.093 214.28L699.086 214.44L700.286 199.56L698.293 199.4ZM698.09 213.36H671.57V215.36H698.09V213.36ZM670.57 214.36V226.24H672.57V214.36H670.57ZM670.57 226.24C670.57 229.698 671.344 232.397 673.206 233.965L674.494 232.435C673.316 231.443 672.57 229.502 672.57 226.24H670.57ZM673.206 233.965C675.016 235.489 678.096 236.12 682.13 236.12V234.12C678.164 234.12 675.723 233.471 674.494 232.435L673.206 233.965ZM682.13 236.12H711.17V234.12H682.13V236.12ZM710.17 235.12V250H712.17V235.12H710.17ZM806.437 250V251H807.437V250H806.437ZM753.157 228.16L752.333 227.592L752.327 227.601L753.157 228.16ZM786.757 179.44L787.58 180.008L788.661 178.44H786.757V179.44ZM751.837 179.44H750.837V180.44H751.837V179.44ZM751.837 164.56V163.56H750.837V164.56H751.837ZM806.437 164.56H807.437V163.56H806.437V164.56ZM806.437 177.76L807.264 178.322L807.437 178.068V177.76H806.437ZM767.437 235.12L766.61 234.558L765.547 236.12H767.437V235.12ZM806.437 235.12H807.437V234.12H806.437V235.12ZM806.437 249H762.997V251H806.437V249ZM762.997 249C758.742 249 755.657 247.994 753.584 246.135L752.249 247.625C754.816 249.926 758.451 251 762.997 251V249ZM753.584 246.135C751.494 244.261 750.437 241.821 750.437 238.72H748.437C748.437 242.339 749.699 245.339 752.249 247.625L753.584 246.135ZM750.437 238.72C750.437 235.614 751.582 232.286 753.986 228.719L752.327 227.601C749.771 231.394 748.437 235.106 748.437 238.72H750.437ZM753.98 228.728L787.58 180.008L785.933 178.872L752.333 227.592L753.98 228.728ZM786.757 178.44H751.837V180.44H786.757V178.44ZM752.837 179.44V164.56H750.837V179.44H752.837ZM751.837 165.56H806.437V163.56H751.837V165.56ZM805.437 164.56V177.76H807.437V164.56H805.437ZM805.61 177.198L766.61 234.558L768.264 235.682L807.264 178.322L805.61 177.198ZM767.437 236.12H806.437V234.12H767.437V236.12ZM805.437 235.12V250H807.437V235.12H805.437Z" fill="black"/>
<path d="M157.594 248.938C157.594 248.729 157.594 248.469 157.594 248.156C157.698 247.844 157.75 247.688 157.75 247.688C159.312 244.667 160.927 241.75 162.594 238.938C164.365 236.125 166.135 233.365 167.906 230.656C169.781 227.844 171.552 225.031 173.219 222.219C174.99 219.302 176.604 216.385 178.062 213.469C177.646 212.531 176.604 211.698 174.938 210.969C173.271 210.24 171.24 209.458 168.844 208.625C166.552 207.792 164.104 206.854 161.5 205.812C158.896 204.667 156.5 203.365 154.312 201.906C152.125 200.344 150.302 198.573 148.844 196.594C147.385 194.51 146.656 192.115 146.656 189.406C146.656 186.594 147.594 184.146 149.469 182.062C151.344 179.875 153.635 178.104 156.344 176.75C159.052 175.292 161.917 174.198 164.938 173.469C167.958 172.74 170.562 172.375 172.75 172.375C177.333 172.375 181.344 173.156 184.781 174.719C188.323 176.281 191.969 178.312 195.719 180.812C196.969 179.875 198.01 178.833 198.844 177.688C199.781 176.542 200.615 175.292 201.344 173.938C201.656 173.208 202.333 171.906 203.375 170.031C204.521 168.052 205.615 165.969 206.656 163.781C207.802 161.594 208.896 159.562 209.938 157.688C211.083 155.708 211.812 154.302 212.125 153.469C212.958 152.844 213.635 152.479 214.156 152.375C214.677 152.167 215.406 152.062 216.344 152.062C216.448 152.062 216.656 152.062 216.969 152.062C217.385 152.062 217.646 152.062 217.75 152.062C218.792 156.438 219.573 160.917 220.094 165.5C220.615 170.083 220.979 174.667 221.188 179.25C221.5 183.833 221.76 188.417 221.969 193C222.177 197.583 222.542 202.167 223.062 206.75C223.375 206.75 223.948 206.802 224.781 206.906C225.615 206.906 226.24 206.906 226.656 206.906C228.115 206.906 229.573 206.75 231.031 206.438C232.49 206.125 233.948 205.812 235.406 205.5C236.865 205.083 238.323 204.719 239.781 204.406C241.344 204.094 242.906 203.938 244.469 203.938H244.938C245.042 204.042 245.25 204.25 245.562 204.562C245.875 204.875 246.135 205.083 246.344 205.188C245.719 206.333 244.677 207.271 243.219 208C241.865 208.625 240.302 209.146 238.531 209.562C236.865 209.979 235.094 210.396 233.219 210.812C231.344 211.125 229.677 211.542 228.219 212.062C226.76 212.479 225.51 213 224.469 213.625C223.531 214.25 223.062 215.135 223.062 216.281C223.062 218.365 223.167 220.448 223.375 222.531C223.688 224.615 224 226.75 224.312 228.938C224.729 231.021 225.094 233.156 225.406 235.344C225.719 237.427 225.875 239.562 225.875 241.75C225.875 242.271 225.823 243 225.719 243.938C225.719 244.875 225.615 245.812 225.406 246.75C225.302 247.688 224.99 248.521 224.469 249.25C224.052 249.979 223.375 250.344 222.438 250.344C221.396 250.344 220.458 249.562 219.625 248C218.792 246.438 218.115 244.458 217.594 242.062C217.073 239.667 216.604 237.062 216.188 234.25C215.875 231.333 215.562 228.573 215.25 225.969C215.042 223.26 214.781 220.917 214.469 218.938C214.156 216.854 213.844 215.5 213.531 214.875C212.698 214.771 211.135 214.667 208.844 214.562C206.656 214.458 204.312 214.354 201.812 214.25C199.417 214.042 197.125 213.885 194.938 213.781C192.75 213.573 191.24 213.469 190.406 213.469H188.844C186.76 213.469 184.781 214.458 182.906 216.438C181.135 218.312 179.469 220.76 177.906 223.781C176.448 226.698 174.99 229.875 173.531 233.312C172.073 236.646 170.667 239.823 169.312 242.844C167.958 245.76 166.552 248.208 165.094 250.188C163.635 252.167 162.073 253.156 160.406 253.156C159.26 253.156 158.479 252.74 158.062 251.906C157.75 250.969 157.594 249.979 157.594 248.938ZM189 206.75C189.833 207.271 190.823 207.688 191.969 208C193.219 208.208 194.469 208.312 195.719 208.312C196.969 208.312 198.115 208.312 199.156 208.312C200.302 208.312 201.292 208.312 202.125 208.312C202.542 208.312 203.062 208.312 203.688 208.312C204.312 208.208 204.938 208.156 205.562 208.156C206.188 208.156 206.708 208.156 207.125 208.156C207.646 208.052 207.958 208 208.062 208L209.469 206.75C209.677 206.542 209.312 205.604 208.375 203.938C207.438 202.271 206.24 200.552 204.781 198.781C203.427 196.906 202.073 195.24 200.719 193.781C199.365 192.219 198.427 191.438 197.906 191.438C197.802 191.438 197.698 191.49 197.594 191.594C197.49 191.698 197.333 191.75 197.125 191.75C195.562 194.042 194.104 196.438 192.75 198.938C191.396 201.438 190.146 204.042 189 206.75ZM153.531 189.25C153.531 191.958 154.469 194.354 156.344 196.438C158.219 198.417 160.51 200.083 163.219 201.438C165.927 202.792 168.792 203.781 171.812 204.406C174.833 205.031 177.49 205.344 179.781 205.344C181.24 205.344 182.75 204.615 184.312 203.156C185.875 201.594 187.281 199.823 188.531 197.844C189.885 195.865 190.979 193.833 191.812 191.75C192.75 189.667 193.219 188.052 193.219 186.906C193.219 185.656 192.385 184.51 190.719 183.469C189.052 182.323 187.073 181.333 184.781 180.5C182.594 179.667 180.406 179.042 178.219 178.625C176.031 178.104 174.417 177.844 173.375 177.844C171.812 177.844 169.885 178.104 167.594 178.625C165.406 179.042 163.219 179.719 161.031 180.656C158.948 181.594 157.177 182.792 155.719 184.25C154.26 185.604 153.531 187.271 153.531 189.25ZM202.594 184.094C202.594 185.448 203.115 187.115 204.156 189.094C205.198 191.073 206.448 193 207.906 194.875C209.365 196.75 210.875 198.365 212.438 199.719C214.104 201.073 215.562 201.75 216.812 201.75C216.812 201.229 216.76 200.448 216.656 199.406C216.656 198.365 216.604 197.219 216.5 195.969C216.5 194.719 216.448 193.573 216.344 192.531C216.344 191.49 216.344 190.708 216.344 190.188C216.135 188.729 215.875 186.802 215.562 184.406C215.354 182.01 215.094 179.667 214.781 177.375C214.573 175.083 214.312 173.052 214 171.281C213.792 169.51 213.635 168.573 213.531 168.469L212.125 165.812C212.021 165.917 211.76 166.125 211.344 166.438C211.031 166.75 210.823 166.958 210.719 167.062C210.406 167.688 209.885 168.729 209.156 170.188C208.427 171.542 207.594 173 206.656 174.562C205.823 176.125 205.042 177.635 204.312 179.094C203.583 180.552 203.062 181.542 202.75 182.062C202.75 182.271 202.698 182.635 202.594 183.156C202.594 183.677 202.594 183.99 202.594 184.094Z" fill="white"/>
</svg>
